<svg version="1.2" xmlns="http://www.w3.org/2000/svg" viewBox="0 0 705 704" width="705" height="704">
	<title>BFM LOCALES</title>
	<defs>
		<linearGradient id="g1" x2="1" gradientUnits="userSpaceOnUse" gradientTransform="matrix(0,-604,604,0,352.5,654)">
			<stop offset="0" stop-color="#0051f9"/>
			<stop offset="1" stop-color="#0096fe"/>
		</linearGradient>
	</defs>
	<style>
		.s0 { fill: #01d8ff } 
		.s1 { fill: url(#g1) } 
		.s2 { fill: #ed9205 } 
		.s3 { fill: #ffffff } 
	</style>
	<g id="Dossier 1">
		<path id="Forme 1" class="s0" d="m151.7 0.9l526.4 111.2c17.8 3.8 29.2 21.3 25.5 39.1l-111.2 526.4c-3.8 17.8-21.3 29.2-39.1 25.5l-526.4-111.2c-17.8-3.8-29.2-21.3-25.5-39.1l111.2-526.4c3.8-17.8 21.3-29.2 39.1-25.5z"/>
		<path id="Forme 1 copy" class="s1" d="m83.5 50h538c18.2 0 33 14.8 33 33v538c0 18.2-14.8 33-33 33h-538c-18.2 0-33-14.8-33-33v-538c0-18.2 14.8-33 33-33z"/>
	</g>
	<g id="Dossier 3">
		<path fill-rule="evenodd" class="s2" d="m134.1 396.3v128.7h42.5v21.4h-64.2v-150.1zm86.9 85.1l-47.2-85.1h25.1l33 60 33-60h25l-47.2 85.1v65h-21.7zm148.9-88.1c10.1 0 19.8 2.1 29.1 6.7 9.5 4.3 17.8 10.7 24.9 18.8 13.2 15 19.7 32.5 19.7 52.5q0 16.3-6.5 31.4c-4.3 10.1-10.5 18.8-18.2 26.1-14.4 13.6-31.4 20.3-50.7 20.3-10.7 0-21.2-2.4-31.2-7.1-10.1-4.7-18.8-11.3-25.9-19.5-12.1-14.1-18.2-31.1-18.2-51.2 0-21.9 7.7-40.5 22.9-55.7 15.2-14.8 33-22.3 54.1-22.3zm-2.3 21.3c-16.2 0-29.7 6.5-39.9 19.8-8.3 10.6-12.7 23.1-12.7 37.3 0 16 5.4 29.2 16 40.1q16 16 37.4 16c7.7 0 15-1.8 22.1-5.1 7.1-3.4 13.2-8.3 18.4-14.5 8.4-10.2 12.8-22.7 12.8-37.3 0-15.4-5.1-28.8-15.2-39.9-10.1-10.9-22.9-16.4-38.9-16.4zm99.1 131.8v-160.4l104.9 114.3v-104.1h21.7v159.4l-104.8-114.3v105.1z"/>
		<path fill-rule="evenodd" class="s3" d="m605.8 162v180.9h-52.7v-116.1h-0.6l-31.4 116.1h-41.7l-31.4-116.1h-0.6v116.1h-52.7v-137.8h-78.4v27.4h50.9v41.5h-50.9v68.9h-55.7v-36.3c-8.9 23.9-34 36.3-59.9 36.3h-102.7v-180.9h99.2c47.8 0 57.8 26.9 57.8 45.4 0 18.4-8.9 28.3-22.3 35.6 11.5 3.9 22.5 11.6 27.9 25.5v-106.5h213.5l25.8 106.5h0.4l25.9-106.5zm-452.1 70.5h29.6c11.7 0 19-3.3 19-15 0-9.1-7.5-12.4-19-12.4h-29.6zm54.7 49.9c0-10.6-6.3-16.4-19.5-16.4h-35v33.8h32.6c11.6 0 21.9-3.3 21.9-17.4z"/>
	</g>
</svg>