<svg width="568" height="531" viewBox="0 0 568 531" fill="none" xmlns="http://www.w3.org/2000/svg">
<path d="M409.02 346.761L398.849 349.951L440.009 322.511C464.501 306.183 481.174 280.477 486.095 251.457C491.965 216.845 480.492 181.516 456.469 155.917C453.155 152.385 449.85 148.846 446.603 145.355C419.139 115.827 380.226 99.5343 339.935 101.192C304.184 102.663 259.736 104.311 224.142 105.054C202.426 105.508 180.822 108.158 159.768 113.498L108.708 126.45C84.1024 132.692 62.3533 147.121 47.0379 167.366C29.3519 190.744 21.5556 220.133 25.3281 249.203L29.4571 281.021L9.20524 222.695C3.11145 205.145 0 186.699 0 168.121C0 110.806 29.4997 57.5262 78.0761 27.1071L79.9055 25.9615C106.996 8.99688 138.315 0 170.279 0H364.244C376.671 0 389.06 1.37949 401.183 4.11313C463.597 18.1868 512.591 66.5031 527.533 128.715L529.04 134.989C550.936 226.156 498.484 318.706 409.02 346.761Z" fill="url(#paint0_radial_9_499)"/>
<path d="M146.881 530.713L146.045 527.266C134.524 479.813 134.811 430.259 146.881 382.942L227 359.5L381 352.5L334.425 370.276C255.258 400.49 188.991 457.179 146.881 530.713Z" fill="url(#paint1_linear_9_499)"/>
<path d="M163.268 394.465L141.394 408.865L147.566 370.757C152.373 341.08 166.011 313.54 186.7 291.728C214.947 261.948 254.189 245.083 295.234 245.083H323.477C333.937 245.083 344.277 242.861 353.814 238.563L361.599 235.055C424.283 206.805 414.293 114.87 347.005 100.743L365.337 99.402C423.844 95.121 476.37 135.112 487.81 192.65C506.768 274.294 446.728 353.026 362.977 356.344L270.499 360.008C232.286 361.522 195.21 373.436 163.268 394.465Z" fill="url(#paint2_linear_9_499)"/>
<path d="M76.5882 358.198L39.059 299.963C30.0056 285.915 23.9487 270.15 21.267 253.654C12.2504 198.188 42.4556 143.778 94.299 122.098L109.219 115.858C126.568 108.603 145.186 104.867 163.992 104.867H230.354L211.17 106.296C187.453 108.062 164.612 116.003 144.915 129.331C102.912 157.752 80.1645 207.146 85.871 257.539L100.5 386.725L76.5882 358.198Z" fill="url(#paint3_linear_9_499)"/>
<defs>
<radialGradient id="paint0_radial_9_499" cx="0" cy="0" r="1" gradientUnits="userSpaceOnUse" gradientTransform="translate(283.967 174.975) rotate(67.2649) scale(315.554 307.782)">
<stop stop-color="#CE2445"/>
<stop offset="0.475962" stop-color="#FF0037"/>
<stop offset="1" stop-color="#C00B34"/>
</radialGradient>
<linearGradient id="paint1_linear_9_499" x1="202.98" y1="349.95" x2="202.98" y2="530.713" gradientUnits="userSpaceOnUse">
<stop stop-color="#389035"/>
<stop offset="0.456731" stop-color="#489C56"/>
<stop offset="1" stop-color="#5AAB7D"/>
</linearGradient>
<linearGradient id="paint2_linear_9_499" x1="350.834" y1="91.9063" x2="350.834" y2="407.097" gradientUnits="userSpaceOnUse">
<stop stop-color="#F36133"/>
<stop offset="0.399038" stop-color="#F2B327"/>
<stop offset="1" stop-color="#D4483E"/>
</linearGradient>
<linearGradient id="paint3_linear_9_499" x1="118.123" y1="104.867" x2="118.123" y2="395.314" gradientUnits="userSpaceOnUse">
<stop stop-color="#5D3FF3"/>
<stop offset="1" stop-color="#5D3FF3"/>
</linearGradient>
</defs>
</svg>
