<?xml version="1.0" encoding="UTF-8"?>
<svg version="1.1" xmlns="http://www.w3.org/2000/svg" width="382" height="67">
<path d="M0 0 C3.5 0.25 3.5 0.25 5.5 2.25 C5.75 5.25 5.75 5.25 5.5 8.25 C3.5 10.25 3.5 10.25 0 10.5 C-3.5 10.25 -3.5 10.25 -5.5 8.25 C-5.75 5.25 -5.75 5.25 -5.5 2.25 C-3.5 0.25 -3.5 0.25 0 0 Z M-278.5 5.25 C-278.5 8.55 -278.5 11.85 -278.5 15.25 C-281.77675335 14.72149139 -284.66697092 13.80745774 -287.75 12.625 C-292.57535032 10.99513958 -296.58590762 10.88960154 -301.5 12.25 C-305.89423614 14.52849281 -308.49126981 16.70392642 -310.5 21.25 C-312.10376257 27.20683241 -311.19348378 31.82094676 -308.5 37.25 C-304.76498681 41.53427984 -300.03319434 42.82782446 -294.5 43.25 C-289.11293385 42.75152148 -285.03999279 41.18764239 -280.5 38.25 C-279.51 38.25 -278.52 38.25 -277.5 38.25 C-277.5 41.88 -277.5 45.51 -277.5 49.25 C-283.39536443 51.78232699 -288.10975081 52.72314376 -294.5 52.625 C-295.25539063 52.63660156 -296.01078125 52.64820313 -296.7890625 52.66015625 C-303.94575073 52.6232661 -310.70153868 50.87860939 -316.11328125 45.8671875 C-321.84464099 39.18329192 -323.324634 32.34621239 -322.984375 23.66015625 C-322.06088229 17.15846967 -319.49836568 11.7144066 -314.5625 7.3125 C-303.35098832 -0.23810991 -290.55743225 -0.77871613 -278.5 5.25 Z M-178.5 1.25 C-178.5 17.75 -178.5 34.25 -178.5 51.25 C-181.8 51.25 -185.1 51.25 -188.5 51.25 C-188.5 35.08 -188.5 18.91 -188.5 2.25 C-183.5 1.25 -183.5 1.25 -178.5 1.25 Z M-15.5 1.25 C-15.5 17.75 -15.5 34.25 -15.5 51.25 C-18.8 51.25 -22.1 51.25 -25.5 51.25 C-25.5 35.08 -25.5 18.91 -25.5 2.25 C-20.5 1.25 -20.5 1.25 -15.5 1.25 Z M-210.1875 13 C-208.89199219 12.97421875 -207.59648437 12.9484375 -206.26171875 12.921875 C-202.14210719 13.28121806 -198.5148456 14.2351544 -195.5 17.25 C-195.42820036 18.76928038 -195.41607993 20.29167482 -195.4375 21.8125 C-195.44652344 22.63878906 -195.45554688 23.46507812 -195.46484375 24.31640625 C-195.47644531 24.95449219 -195.48804688 25.59257812 -195.5 26.25 C-198.55059211 25.80138351 -200.69020153 25.14882897 -203.4375 23.6875 C-206.89603261 22.06410714 -208.72995697 21.70020206 -212.5 22.25 C-215.68328368 23.71920785 -217.81190224 24.88541795 -219.42578125 28.0859375 C-220.58320728 31.79254112 -220.6420903 33.80701259 -219.4375 37.5625 C-217.27588839 40.56086449 -215.91673966 41.85224287 -212.5 43.25 C-206.85951114 43.87672098 -203.48724414 42.55180499 -198.5 40.25 C-197.51 40.25 -196.52 40.25 -195.5 40.25 C-195.44600264 41.70792884 -195.40720823 43.16642712 -195.375 44.625 C-195.35179687 45.43710937 -195.32859375 46.24921875 -195.3046875 47.0859375 C-195.5 49.25 -195.5 49.25 -197.5 51.25 C-203.85710326 53.59607382 -213.72964878 53.25834974 -220.1875 51.53125 C-225.63620854 48.97200811 -228.52622412 45.56851401 -230.8125 40.125 C-231.9543841 33.68892601 -231.76266126 27.77532252 -228.8125 21.875 C-223.15031021 15.44764943 -218.89813574 13.10339034 -210.1875 13 Z M-138.87890625 14.1953125 C-133.81024301 17.2422594 -130.45117451 20.94000476 -128.1875 26.4375 C-127.06544602 32.65979935 -127.31579067 37.96616771 -130.25 43.625 C-134.38992824 48.45491628 -138.47823963 51.91927738 -144.890625 52.62109375 C-152.57548774 52.75332317 -158.61404095 52.77093833 -164.5 47.25 C-168.68199961 43.06800039 -170.45010887 38.7423792 -170.53515625 32.7890625 C-170.1094765 25.87436214 -168.23628132 21.71265319 -163 17 C-156.07254454 12.15078118 -146.9147396 11.29714309 -138.87890625 14.1953125 Z M-156.5 24.25 C-159.17498395 27.01722477 -160.32059027 29.39269089 -160.5 33.25 C-159.03326397 37.72740473 -157.79576185 41.04075105 -153.5 43.25 C-149.75636271 44.38936787 -148.0071409 44.43893485 -144.3125 43.0625 C-140.72156194 40.74833992 -139.12761297 38.90869141 -137.625 34.9375 C-137.44507499 31.06911223 -138.68491471 28.629814 -140.5 25.25 C-145.42122028 20.15908247 -150.83095414 20.59661489 -156.5 24.25 Z M-100.6875 13 C-99.48480469 12.97421875 -98.28210938 12.9484375 -97.04296875 12.921875 C-92.33716091 13.35769403 -89.11449067 14.76074236 -85.63671875 17.96875 C-85.15847656 18.5565625 -84.68023437 19.144375 -84.1875 19.75 C-83.45080078 20.63171875 -83.45080078 20.63171875 -82.69921875 21.53125 C-79.1690993 26.59070459 -80.1158142 33.37848116 -80.5 39.25 C-82.18657054 44.70655175 -85.8985139 48.03941766 -90.5 51.25 C-93.97386432 52.40795477 -96.77769304 52.41829849 -100.4375 52.4375 C-101.66339844 52.45167969 -102.88929688 52.46585938 -104.15234375 52.48046875 C-107.5 52.25 -107.5 52.25 -111.5 50.25 C-111.5 54.87 -111.5 59.49 -111.5 64.25 C-114.8 64.25 -118.1 64.25 -121.5 64.25 C-121.5 47.75 -121.5 31.25 -121.5 14.25 C-117.87 14.25 -114.24 14.25 -110.5 14.25 C-107.07008462 13.10669487 -104.3013584 13.04618349 -100.6875 13 Z M-109.8125 26.5 C-112.05701351 30.15772571 -112.22952196 32.01877264 -111.5 36.25 C-109.07125346 40.57540019 -106.69123184 42.87382152 -101.9375 44.375 C-97.21030773 44.2031021 -95.12018468 42.70257937 -91.6875 39.625 C-89.80634717 35.86269435 -89.75327363 32.36055087 -90.5 28.25 C-91.83765391 25.38444806 -92.97749326 24.39681425 -95.5 22.25 C-102.09662158 20.24745416 -105.08450819 21.89979175 -109.8125 26.5 Z M-43.87890625 14.1953125 C-38.81024301 17.2422594 -35.45117451 20.94000476 -33.1875 26.4375 C-32.06544602 32.65979935 -32.31579067 37.96616771 -35.25 43.625 C-39.38992824 48.45491628 -43.47823963 51.91927738 -49.890625 52.62109375 C-57.57548774 52.75332317 -63.61404095 52.77093833 -69.5 47.25 C-73.68199961 43.06800039 -75.45010887 38.7423792 -75.53515625 32.7890625 C-75.1094765 25.87436214 -73.23628132 21.71265319 -68 17 C-61.07254454 12.15078118 -51.9147396 11.29714309 -43.87890625 14.1953125 Z M-61.5 24.25 C-64.17498395 27.01722477 -65.32059027 29.39269089 -65.5 33.25 C-64.03326397 37.72740473 -62.79576185 41.04075105 -58.5 43.25 C-54.75636271 44.38936787 -53.0071409 44.43893485 -49.3125 43.0625 C-45.72156194 40.74833992 -44.12761297 38.90869141 -42.625 34.9375 C-42.44507499 31.06911223 -43.68491471 28.629814 -45.5 25.25 C-50.42122028 20.15908247 -55.83095414 20.59661489 -61.5 24.25 Z M29.4375 13.0625 C30.68402344 13.04832031 31.93054688 13.03414062 33.21484375 13.01953125 C36.5 13.25 36.5 13.25 39.5 15.25 C39.79296875 17.4140625 39.79296875 17.4140625 39.6875 19.875 C39.66042969 20.69226563 39.63335937 21.50953125 39.60546875 22.3515625 C39.57066406 22.97804688 39.53585937 23.60453125 39.5 24.25 C38.79875 24.105625 38.0975 23.96125 37.375 23.8125 C31.97651089 22.67931802 31.97651089 22.67931802 26.5 22.25 C27.76072674 26.03218022 28.96164374 26.35039304 32.375 28.25 C39.90501792 32.46505376 39.90501792 32.46505376 41.5 37.25 C41.86945059 42.23758297 41.68227193 45.29959346 38.5 49.25 C34.45941579 52.26048913 31.48895974 52.63238844 26.5 52.5625 C25.30375 52.55863281 24.1075 52.55476563 22.875 52.55078125 C19.66084307 52.26433439 17.39460241 51.62603259 14.5 50.25 C14.5 46.95 14.5 43.65 14.5 40.25 C17.18849519 40.71088489 19.45077903 41.22728263 21.9375 42.375 C25.1333046 43.46625035 27.25278164 43.00516706 30.5 42.25 C29.01198753 38.40314957 26.91262618 36.90471498 23.5 34.6875 C20.33111952 32.61943701 18.62436151 31.43654226 16.5 28.25 C15.76034975 23.65728797 15.89038806 20.22537911 18.375 16.25 C22.01305988 12.82594364 24.51450419 13.08790246 29.4375 13.0625 Z M-274.5 14.25 C-270.87 14.25 -267.24 14.25 -263.5 14.25 C-262.94570313 15.38179687 -262.39140625 16.51359375 -261.8203125 17.6796875 C-261.0887537 19.16156303 -260.35697122 20.64332815 -259.625 22.125 C-259.26019531 22.87136719 -258.89539063 23.61773437 -258.51953125 24.38671875 C-257.98779297 25.45986328 -257.98779297 25.45986328 -257.4453125 26.5546875 C-257.12062988 27.21452637 -256.79594727 27.87436523 -256.46142578 28.55419922 C-255.49724181 30.43034686 -255.49724181 30.43034686 -253.5 32.25 C-253.26289307 31.74025635 -253.02578613 31.2305127 -252.78149414 30.70532227 C-251.71074407 28.40665983 -250.63666805 26.10956706 -249.5625 23.8125 C-249.18931641 23.01005859 -248.81613281 22.20761719 -248.43164062 21.38085938 C-248.07392578 20.61708984 -247.71621094 19.85332031 -247.34765625 19.06640625 C-247.01773682 18.35943604 -246.68781738 17.65246582 -246.34790039 16.92407227 C-245.5 15.25 -245.5 15.25 -244.5 14.25 C-242.64712498 14.17773498 -240.79166122 14.1661878 -238.9375 14.1875 C-237.92558594 14.19652344 -236.91367188 14.20554687 -235.87109375 14.21484375 C-235.08863281 14.22644531 -234.30617187 14.23804687 -233.5 14.25 C-234.85270897 18.58233016 -236.52042992 22.57589148 -238.51171875 26.65234375 C-238.80112839 27.24784027 -239.09053802 27.84333679 -239.38871765 28.45687866 C-240.00298373 29.71995885 -240.6188679 30.98225326 -241.23626709 32.24380493 C-242.82738907 35.49501282 -244.40706679 38.75177793 -245.98828125 42.0078125 C-246.29608521 42.64078751 -246.60388916 43.27376251 -246.92102051 43.92591858 C-250.19445292 50.66377776 -253.37284897 57.44315621 -256.5 64.25 C-260.46 64.25 -264.42 64.25 -268.5 64.25 C-267.76007813 63.29867187 -267.02015625 62.34734375 -266.2578125 61.3671875 C-263.07872851 56.53951464 -260.72551246 52.12234439 -260.5 46.25 C-263.06704359 36.53856425 -268.18389584 27.65250648 -273.08789062 18.9453125 C-274.5 16.25 -274.5 16.25 -274.5 14.25 Z M-4.5 14.25 C-1.2 14.25 2.1 14.25 5.5 14.25 C5.5 26.46 5.5 38.67 5.5 51.25 C2.2 51.25 -1.1 51.25 -4.5 51.25 C-4.5 39.04 -4.5 26.83 -4.5 14.25 Z " fill="#15295C" transform="translate(329.5,2.75)"/>
</svg>
