<svg width="800" height="280" viewBox="0 0 800 280" fill="none" xmlns="http://www.w3.org/2000/svg">
<g clip-path="url(#clip0_273_8008)">
<path d="M286.153 206.949C286.462 206.949 286.722 207.198 286.722 207.517V211.365C286.722 229.449 278.467 237.205 265.537 237.205C252.607 237.205 244.024 229.449 244.024 211.365V204.447C244.024 185.944 252.697 178.198 265.537 178.198C276.992 178.198 284.359 184.459 286.363 196.123C286.423 196.472 286.153 196.791 285.804 196.791H277.58C277.321 196.791 277.091 196.601 277.032 196.352C275.546 189.972 271.898 186.622 265.537 186.622C257.861 186.622 253.694 191.627 253.694 204.038V211.375C253.694 223.797 257.861 228.791 265.537 228.791C273.213 228.791 276.503 224.505 277.201 215.533C277.201 215.453 277.141 215.373 277.062 215.373H266.355C266.046 215.373 265.786 215.124 265.786 214.805V207.517C265.786 207.208 266.036 206.949 266.355 206.949H286.153Z" fill="#E4002B"/>
<path d="M326.628 236.049L315.761 213.18C315.761 213.18 315.692 213.1 315.632 213.1H304.716C304.636 213.1 304.576 213.16 304.576 213.24V235.8C304.576 236.109 304.327 236.368 304.008 236.368H295.494C295.185 236.368 294.926 236.119 294.926 235.8V179.584C294.926 179.275 295.175 179.016 295.494 179.016H314.475C327.694 179.016 335.6 184.748 335.6 196.133C335.6 203.968 331.911 209.023 325.352 211.455C325.272 211.485 325.232 211.575 325.272 211.644L337.026 235.54C337.215 235.919 336.936 236.358 336.517 236.358H327.136C326.917 236.358 326.717 236.228 326.628 236.039V236.049ZM313.808 204.786C321.962 204.786 325.95 202.622 325.95 196.143C325.95 189.663 321.962 187.42 313.808 187.42H304.716C304.636 187.42 304.576 187.479 304.576 187.559V204.646C304.576 204.726 304.636 204.786 304.716 204.786H313.808Z" fill="#E4002B"/>
<path d="M344.184 235.62L363.753 179.404C363.833 179.175 364.042 179.025 364.291 179.025H372.635C372.875 179.025 373.094 179.175 373.174 179.404L392.743 235.62C392.873 235.989 392.593 236.368 392.205 236.368H383.183C382.943 236.368 382.724 236.208 382.644 235.979L378.896 224.584C378.876 224.524 378.826 224.484 378.766 224.484H358.26C358.2 224.484 358.14 224.524 358.13 224.584L354.382 235.979C354.302 236.208 354.093 236.368 353.844 236.368H344.732C344.343 236.368 344.074 235.989 344.193 235.62H344.184ZM361.001 216.18H375.915C376.015 216.18 376.075 216.091 376.045 215.991L368.588 193.391C368.548 193.261 368.359 193.261 368.319 193.391L360.862 215.991C360.832 216.081 360.902 216.18 360.991 216.18H361.001Z" fill="#E4002B"/>
<path d="M441.203 179.594V235.809C441.203 236.118 440.954 236.378 440.635 236.378H432.958C432.759 236.378 432.58 236.278 432.47 236.098L409.531 197.837C409.461 197.717 409.272 197.767 409.272 197.907V235.809C409.272 236.118 409.023 236.378 408.704 236.378H400.519C400.21 236.378 399.951 236.128 399.951 235.809V179.594C399.951 179.285 400.2 179.025 400.519 179.025H407.946C408.145 179.025 408.325 179.125 408.434 179.305L431.623 218.064C431.692 218.184 431.882 218.134 431.882 217.995V179.594C431.882 179.285 432.131 179.025 432.45 179.025H440.635C440.944 179.025 441.203 179.275 441.203 179.594Z" fill="#E4002B"/>
<path d="M449.627 235.809V179.594C449.627 179.285 449.876 179.025 450.195 179.025H469.007C481.897 179.025 490.54 185.924 490.54 204.287V211.106C490.54 229.469 481.887 236.368 469.007 236.368H450.195C449.886 236.368 449.627 236.118 449.627 235.799V235.809ZM480.89 211.106V204.287C480.89 192.484 477.231 187.419 468.997 187.419H459.406C459.327 187.419 459.267 187.479 459.267 187.559V227.914C459.267 227.994 459.327 228.053 459.406 228.053H468.997C477.231 228.053 480.89 222.899 480.89 211.096V211.106Z" fill="#E4002B"/>
<path d="M541.41 144.12H0V0H541.41V144.12ZM280.41 42.5732C267.361 42.5732 257.8 50.2999 257.8 67.5859V76.5576C257.8 93.6741 267.36 101.569 280.41 101.569C293.46 101.569 303.02 93.6745 303.02 76.5576V67.5859C303.02 50.3 293.46 42.5733 280.41 42.5732ZM385.47 42.5732C372.42 42.5733 362.86 50.3 362.86 67.5859V76.5576C362.86 93.674 372.42 101.569 385.47 101.569C398.519 101.569 408.08 93.6746 408.08 76.5576V67.5859C408.08 50.2999 398.52 42.5732 385.47 42.5732ZM87.5186 43.3857C87.3092 43.3857 87.1192 43.4952 87.0195 43.6846L71.8467 72.2354L71.8271 72.2461C71.7772 72.3454 71.6281 72.3454 71.5781 72.2461L56.3252 43.6943C56.2255 43.515 56.0354 43.3955 55.8262 43.3955H43.9336C43.6146 43.3955 43.3653 43.6549 43.3652 43.9639V100.18C43.3652 100.499 43.6246 100.748 43.9336 100.748H55.7666C56.0856 100.748 56.335 100.489 56.335 100.18V69.166C56.335 69.0264 56.5337 68.9768 56.6035 69.1064L67.7295 90.958C67.8292 91.1474 68.0289 91.2676 68.2383 91.2676H74.9473C75.1566 91.2676 75.3466 91.1474 75.4463 90.958L86.8213 68.8467C86.8913 68.7078 87.0898 68.7579 87.0898 68.9072V100.17C87.0898 100.489 87.3492 100.738 87.6582 100.738H99.4912C99.8102 100.738 100.06 100.479 100.06 100.17V43.9541C100.06 43.6351 99.8003 43.3857 99.4912 43.3857H87.5186ZM154.303 43.3857C153.984 43.3859 153.734 43.6452 153.734 43.9541V54.292C153.734 54.6108 153.994 54.8602 154.303 54.8604H168.559C168.638 54.8604 168.698 54.9202 168.698 55V100.17C168.698 100.489 168.958 100.738 169.267 100.738H181.928C182.247 100.738 182.496 100.479 182.496 100.17V55C182.496 54.9202 182.556 54.8604 182.636 54.8604H196.892C197.211 54.8604 197.46 54.6009 197.46 54.292V43.9541C197.46 43.6351 197.2 43.3857 196.891 43.3857H154.303ZM122.8 33.9941C122.601 33.9942 122.421 34.0936 122.312 34.2529L116.928 43.3154C116.908 43.3551 116.858 43.3847 116.809 43.3848H109.371C109.062 43.385 108.804 43.6443 108.804 43.9531V100.18C108.804 100.488 109.053 100.737 109.361 100.737H144.463C144.772 100.737 145.031 100.478 145.031 100.169V89.8213C145.031 89.5123 144.782 89.2628 144.473 89.2627H122.739C122.66 89.2626 122.6 89.2027 122.6 89.123V76.9414C122.6 76.8618 122.66 76.8019 122.739 76.8018H141.97C142.279 76.8016 142.538 76.5424 142.538 76.2334V65.8857C142.538 65.5767 142.289 65.3272 141.979 65.3271H122.739C122.66 65.327 122.6 65.2672 122.6 65.1875V55L122.59 54.999C122.59 54.9194 122.65 54.8595 122.729 54.8594H144.453C144.762 54.8592 145.021 54.6 145.021 54.291V43.9434C145.021 43.6344 144.772 43.3848 144.463 43.3848H131.324C131.215 43.3848 131.144 43.245 131.214 43.1553L137.226 34.9111C137.514 34.5424 137.256 33.9945 136.777 33.9941H122.8ZM312.101 43.3848C311.782 43.3848 311.532 43.6441 311.532 43.9531V100.169C311.532 100.488 311.792 100.737 312.101 100.737H324.762C325.081 100.737 325.33 100.478 325.33 100.169V81.5068L325.34 81.4961C325.34 81.4164 325.4 81.3564 325.479 81.3564H333.146C346.445 81.3564 354.839 74.7861 354.839 61.9961C354.839 49.2064 346.364 43.3848 333.146 43.3848H312.101ZM417.322 43.3848C417.003 43.3848 416.754 43.6441 416.754 43.9531V100.169C416.754 100.488 417.013 100.737 417.322 100.737H452.423C452.742 100.737 452.991 100.478 452.991 100.169V89.8311C452.991 89.512 452.732 89.2627 452.423 89.2627H430.689C430.61 89.2625 430.551 89.2026 430.551 89.123V43.9531C430.551 43.6343 430.292 43.385 429.983 43.3848H417.322ZM462.351 43.3848C462.032 43.3848 461.782 43.6441 461.782 43.9531V100.169C461.782 100.488 462.042 100.737 462.351 100.737H497.452C497.771 100.737 498.02 100.478 498.02 100.169V89.8311C498.02 89.5122 497.761 89.263 497.452 89.2627H475.719C475.639 89.2627 475.579 89.2028 475.579 89.123V76.9414C475.579 76.8616 475.639 76.8018 475.719 76.8018H494.959C495.278 76.8016 495.527 76.5423 495.527 76.2334V65.8955C495.527 65.5766 495.268 65.3273 494.959 65.3271H475.719C475.639 65.3271 475.579 65.2673 475.579 65.1875V55C475.579 54.9202 475.639 54.8604 475.719 54.8604H497.452C497.771 54.8601 498.019 54.6008 498.02 54.292V43.9541C498.02 43.6353 497.761 43.385 497.452 43.3848H462.351ZM206.792 43.376C206.473 43.376 206.224 43.6354 206.224 43.9443V100.16C206.224 100.479 206.483 100.729 206.792 100.729H219.453C219.772 100.728 220.021 100.469 220.021 100.16V79.1758C220.021 79.096 220.081 79.0361 220.161 79.0361H227.079C227.139 79.0361 227.189 79.0664 227.209 79.1162L236.58 100.39C236.67 100.599 236.879 100.729 237.099 100.729H250.966C251.374 100.728 251.653 100.3 251.474 99.9209L240.448 76.7529C240.418 76.6832 240.448 76.5935 240.518 76.5635C246.25 73.8815 249.53 68.8372 249.53 61.4102C249.53 49.4475 241.056 43.376 227.837 43.376H206.792ZM280.41 54.0381C286.152 54.0382 289.223 58.1952 289.223 67.5859V76.5576C289.223 85.9484 286.152 90.1054 280.41 90.1055C274.668 90.1055 271.598 85.9485 271.598 76.5576V67.5859C271.598 58.195 274.668 54.0381 280.41 54.0381ZM385.47 54.0381C391.212 54.0381 394.282 58.195 394.282 67.5859V76.5576C394.282 85.9485 391.212 90.1055 385.47 90.1055C379.728 90.1054 376.657 85.9484 376.657 76.5576V67.5859C376.657 58.1951 379.728 54.0382 385.47 54.0381ZM330.653 54.8496C337.881 54.8496 341.041 57.3416 341.041 61.9971C341.041 67.7293 337.881 69.8926 330.653 69.8926H325.479C325.4 69.8926 325.34 69.8327 325.34 69.7529V54.9893C325.34 54.9095 325.4 54.8496 325.479 54.8496H330.653ZM226.172 54.8516C231.745 54.8516 235.732 56.0177 235.732 61.4209C235.732 66.8241 231.745 67.5723 226.172 67.5723V67.5615H220.16C220.081 67.5613 220.021 67.5015 220.021 67.4219V54.9912C220.021 54.9116 220.081 54.8517 220.16 54.8516H226.172Z" fill="#E4002B"/>
<path d="M800 279.76H532.93V135.64H800V279.76ZM680.28 178.204C667.231 178.204 657.67 185.93 657.67 203.216V212.188C657.67 229.305 667.23 237.2 680.28 237.2C693.33 237.2 702.89 229.305 702.89 212.188V203.216C702.89 185.93 693.33 178.204 680.28 178.204ZM744.199 179.022C743.88 179.022 743.631 179.281 743.631 179.59V210.724C743.631 210.863 743.451 210.922 743.371 210.803L722.526 179.281C722.427 179.132 722.247 179.032 722.058 179.032H711.959C711.64 179.032 711.391 179.292 711.391 179.601V235.816C711.391 236.135 711.65 236.385 711.959 236.385H723.792C724.111 236.385 724.36 236.125 724.36 235.816V205.102C724.36 204.962 724.539 204.902 724.619 205.021L745.306 236.125C745.405 236.284 745.584 236.375 745.773 236.375H756.042C756.361 236.375 756.61 236.115 756.61 235.807V179.59H756.6C756.599 179.271 756.341 179.023 756.032 179.022H744.199ZM606.807 179.031C606.388 179.031 606.109 179.48 606.309 179.858L623.734 213.404C623.754 213.424 623.754 213.475 623.754 213.475V235.815C623.754 236.134 624.013 236.384 624.322 236.384H636.993C637.312 236.384 637.562 236.124 637.562 235.815V213.475C637.562 213.445 637.582 213.404 637.582 213.404L655.008 179.858C655.207 179.48 654.937 179.031 654.509 179.031H639.935C639.705 179.031 639.506 179.161 639.416 179.36L630.803 198.441C630.753 198.551 630.593 198.551 630.543 198.441L621.93 179.36H621.9C621.811 179.161 621.601 179.031 621.382 179.031H606.807ZM576.892 179.022C576.573 179.023 576.324 179.282 576.324 179.591V235.807C576.324 236.125 576.583 236.375 576.892 236.375H611.993C612.312 236.375 612.561 236.116 612.562 235.807V225.469C612.562 225.15 612.302 224.9 611.993 224.9H590.26C590.18 224.9 590.121 224.84 590.121 224.761V179.591C590.121 179.272 589.862 179.022 589.553 179.022H576.892ZM680.28 189.668C686.022 189.668 689.093 193.825 689.093 203.216V212.188C689.093 221.579 686.022 225.736 680.28 225.736C674.538 225.736 671.468 221.579 671.468 212.188V203.216C671.468 193.825 674.538 189.668 680.28 189.668Z" fill="#E4002B"/>
</g>
<defs>
<clipPath id="clip0_273_8008">
<rect width="800" height="279.76" fill="white"/>
</clipPath>
</defs>
</svg>
