<svg width="74" height="42" viewBox="0 0 74 42" fill="none" xmlns="http://www.w3.org/2000/svg">
<path d="M4.34 5.2L8.66 2.7C9.11333 2.43333 9.51333 2.4 9.86 2.6C10.22 2.8 10.4 3.16667 10.4 3.7V5.7L8.66 6.7V4.7L4.34 7.2V18.8L8.66 16.3V11.5L6.06 13V11L10.4 8.5V17.3L8.66 18.3V16.3C8.66 16.6467 8.58 17.02 8.42 17.42C8.26 17.82 8.04667 18.1933 7.78 18.54C7.51333 18.8733 7.22667 19.1267 6.92 19.3L4.34 20.8C3.87333 21.0667 3.46667 21.1 3.12 20.9C2.77333 20.7 2.6 20.3333 2.6 19.8V8.2C2.6 7.84 2.68 7.46667 2.84 7.08C3 6.68 3.21333 6.31333 3.48 5.98C3.74667 5.63333 4.03333 5.37333 4.34 5.2ZM8.66 16.3V18.3L6.92 17.3V15.3L8.66 16.3ZM8.66 11.5V16.3L6.92 15.3V10.5L8.66 11.5ZM8.66 4.7V6.7L6.92 5.7V3.7L8.66 4.7ZM10.4 8.5L6.06 11L4.34 10L8.66 7.5L10.4 8.5ZM6.06 11V13L4.34 12V10L6.06 11ZM8.66 16.3L4.34 18.8L2.6 17.8L6.92 15.3L8.66 16.3ZM9.88 2.6C9.52 2.4 9.11333 2.43333 8.66 2.7L4.34 5.2C4.03333 5.37333 3.74667 5.63333 3.48 5.98C3.21333 6.31333 3 6.68 2.84 7.08C2.68 7.46667 2.6 7.84 2.6 8.2V19.8C2.6 20.3333 2.77333 20.7 3.12 20.9L1.38 19.9C1.03333 19.7 0.86 19.3333 0.86 18.8V7.2C0.86 6.84 0.94 6.46667 1.1 6.08C1.26 5.68 1.47333 5.31333 1.74 4.98C2.00667 4.63333 2.29333 4.37333 2.6 4.2L6.92 1.7C7.38667 1.43333 7.79333 1.4 8.14 1.6L9.88 2.6ZM19.3295 13.5L15.0095 16V20L13.2695 21V6.2L19.3295 2.7C19.7829 2.43333 20.1829 2.4 20.5295 2.6C20.8895 2.8 21.0695 3.16667 21.0695 3.7V8.5C21.0695 8.84667 20.9829 9.22 20.8095 9.62C20.6495 10.02 20.4362 10.3933 20.1695 10.74C19.9162 11.0733 19.6362 11.3267 19.3295 11.5C19.7829 11.2333 20.1829 11.2 20.5295 11.4C20.8895 11.6 21.0695 11.9667 21.0695 12.5V16.5L19.3295 17.5V13.5ZM19.3295 11.5V4.7L15.0095 7.2V14L19.3295 11.5ZM19.3295 13.5V17.5L17.5895 16.5V12.5L19.3295 13.5ZM20.5495 11.4C20.1895 11.2 19.7829 11.2333 19.3295 11.5L17.5895 10.5C18.0562 10.2333 18.4629 10.2 18.8095 10.4L20.5495 11.4ZM19.3295 4.7V11.5L17.5895 10.5V3.7L19.3295 4.7ZM19.3295 11.5L15.0095 14L13.2695 13L17.5895 10.5L19.3295 11.5ZM20.5495 2.6C20.1895 2.4 19.7829 2.43333 19.3295 2.7L13.2695 6.2L11.5295 5.2L17.5895 1.7C18.0562 1.43333 18.4629 1.4 18.8095 1.6L20.5495 2.6ZM13.2695 6.2V21L11.5295 20V5.2L13.2695 6.2ZM25.6791 5.2L29.9991 2.7C30.4524 2.43333 30.8524 2.4 31.1991 2.6C31.5591 2.8 31.7391 3.16667 31.7391 3.7V16.5L29.9991 17.5V13.5L25.6791 16V20L23.9391 21V8.2C23.9391 7.84 24.0191 7.46667 24.1791 7.08C24.3391 6.68 24.5524 6.31333 24.8191 5.98C25.0857 5.63333 25.3724 5.37333 25.6791 5.2ZM29.9991 11.5V4.7L25.6791 7.2V14L29.9991 11.5ZM29.9991 13.5V17.5L28.2591 16.5V12.5L29.9991 13.5ZM29.9991 4.7V11.5L28.2591 10.5V3.7L29.9991 4.7ZM29.9991 11.5L25.6791 14L23.9391 13L28.2591 10.5L29.9991 11.5ZM31.2191 2.6C30.8591 2.4 30.4524 2.43333 29.9991 2.7L25.6791 5.2C25.3724 5.37333 25.0857 5.63333 24.8191 5.98C24.5524 6.31333 24.3391 6.68 24.1791 7.08C24.0191 7.46667 23.9391 7.84 23.9391 8.2V21L22.1991 20V7.2C22.1991 6.84 22.2791 6.46667 22.4391 6.08C22.5991 5.68 22.8124 5.31333 23.0791 4.98C23.3457 4.63333 23.6324 4.37333 23.9391 4.2L28.2591 1.7C28.7257 1.43333 29.1324 1.4 29.4791 1.6L31.2191 2.6ZM38.9286 4.5C39.3953 4.23333 39.8019 4.2 40.1486 4.4C40.4953 4.6 40.6686 4.96667 40.6686 5.5V15.5L43.2686 14V2L45.0086 0.999999V15L40.6686 17.5C40.2153 17.7667 39.8086 17.8 39.4486 17.6C39.1019 17.4 38.9286 17.0333 38.9286 16.5V6.5L36.3486 8V20L34.6086 21V7L38.9286 4.5ZM45.0086 0.999999L43.2686 2L41.5286 0.999999L43.2686 0L45.0086 0.999999ZM43.2686 2V14L41.5286 13V0.999999L43.2686 2ZM43.2686 14L40.6686 15.5L38.9286 14.5L41.5286 13L43.2686 14ZM38.9286 6.5V16.5C38.9286 17.0333 39.1019 17.4 39.4486 17.6L37.7286 16.6C37.3819 16.4 37.2086 16.0333 37.2086 15.5V5.5L38.9286 6.5ZM40.1486 4.4C39.8019 4.2 39.3953 4.23333 38.9286 4.5L34.6086 7L32.8686 6L37.2086 3.5C37.6619 3.23333 38.0619 3.2 38.4086 3.4L40.1486 4.4ZM34.6086 7V21L32.8686 20V6L34.6086 7ZM54.1158 2.6C54.5691 2.33333 54.9691 2.3 55.3158 2.5C55.6624 2.7 55.8358 3.06667 55.8358 3.6V14.4C55.8358 14.76 55.7558 15.14 55.5958 15.54C55.4358 15.9267 55.2224 16.2933 54.9558 16.64C54.7024 16.9733 54.4224 17.2267 54.1158 17.4L51.3358 19C50.8824 19.2667 50.4824 19.3 50.1358 19.1C49.7891 18.9 49.6158 18.5333 49.6158 18L54.1158 15.4V4.6L49.6158 7.2V20L47.8758 21V6.2L54.1158 2.6ZM54.1158 4.6V15.4L52.3758 14.4V3.6L54.1158 4.6ZM54.1158 15.4L49.6158 18L47.8758 17L52.3758 14.4L54.1158 15.4ZM49.6158 18C49.6158 18.5333 49.7891 18.9 50.1358 19.1L48.3958 18.1C48.0491 17.9 47.8758 17.5333 47.8758 17L49.6158 18ZM55.3158 2.5C54.9691 2.3 54.5691 2.33333 54.1158 2.6L47.8758 6.2L46.1358 5.2L52.3758 1.6C52.8291 1.33333 53.2358 1.3 53.5958 1.5L55.3158 2.5ZM47.8758 6.2V21L46.1358 20V5.2L47.8758 6.2ZM60.4611 14C59.9944 14.2667 59.5878 14.3 59.2411 14.1C58.8944 13.9 58.7211 13.5333 58.7211 13V8.2C58.7211 7.84 58.8011 7.46667 58.9611 7.08C59.1211 6.68 59.3344 6.31333 59.6011 5.98C59.8678 5.63333 60.1544 5.37333 60.4611 5.2L64.7811 2.7C65.2344 2.43333 65.6344 2.4 65.9811 2.6C66.3411 2.8 66.5211 3.16667 66.5211 3.7V6.5L64.7811 7.5V4.7L60.4611 7.2V12L64.7811 9.5C65.2344 9.23333 65.6344 9.2 65.9811 9.4C66.3411 9.6 66.5211 9.96667 66.5211 10.5V15.3C66.5211 15.6467 66.4344 16.02 66.2611 16.42C66.1011 16.82 65.8878 17.1933 65.6211 17.54C65.3678 17.8733 65.0878 18.1267 64.7811 18.3L60.4611 20.8C59.9944 21.0667 59.5878 21.1 59.2411 20.9C58.8944 20.7 58.7211 20.3333 58.7211 19.8V17.8L60.4611 16.8V18.8L64.7811 16.3V11.5L60.4611 14ZM64.7811 11.5V16.3L63.0411 15.3V10.5L64.7811 11.5ZM64.7811 16.3L60.4611 18.8L58.7211 17.8L63.0411 15.3L64.7811 16.3ZM64.7811 4.7V7.5L63.0411 6.5V3.7L64.7811 4.7ZM60.4611 16.8L58.7211 17.8L56.9811 16.8L58.7211 15.8L60.4611 16.8ZM58.7211 17.8V19.8C58.7211 20.3333 58.8944 20.7 59.2411 20.9L57.5011 19.9C57.1544 19.7 56.9811 19.3333 56.9811 18.8V16.8L58.7211 17.8ZM66.0011 9.4C65.6411 9.2 65.2344 9.23333 64.7811 9.5L60.4611 12L58.7211 11L63.0411 8.5C63.5078 8.23333 63.9144 8.2 64.2611 8.4L66.0011 9.4ZM66.0011 2.6C65.6411 2.4 65.2344 2.43333 64.7811 2.7L60.4611 5.2C60.1544 5.37333 59.8678 5.63333 59.6011 5.98C59.3344 6.31333 59.1211 6.68 58.9611 7.08C58.8011 7.46667 58.7211 7.84 58.7211 8.2V13C58.7211 13.5333 58.8944 13.9 59.2411 14.1L57.5011 13.1C57.1544 12.9 56.9811 12.5333 56.9811 12V7.2C56.9811 6.84 57.0611 6.46667 57.2211 6.08C57.3811 5.68 57.5944 5.31333 57.8611 4.98C58.1278 4.63333 58.4144 4.37333 58.7211 4.2L63.0411 1.7C63.5078 1.43333 63.9144 1.4 64.2611 1.6L66.0011 2.6Z" fill="#14AE5C"/>
<path d="M6.06 35C5.60667 35.2667 5.20667 35.3 4.86 35.1C4.51333 34.9 4.34 34.5333 4.34 34V40L2.6 41V26.2L8.66 22.7C9.11333 22.4333 9.51333 22.4 9.86 22.6C10.22 22.8 10.4 23.1667 10.4 23.7V30.5C10.4 30.8467 10.3133 31.22 10.14 31.62C9.98 32.02 9.76667 32.3933 9.5 32.74C9.24667 33.0733 8.96667 33.3267 8.66 33.5L6.06 35ZM8.66 24.7L4.34 27.2V34L8.66 31.5V24.7ZM4.34 34C4.34 34.5333 4.51333 34.9 4.86 35.1L3.12 34.1C2.77333 33.9 2.6 33.5333 2.6 33L4.34 34ZM8.66 24.7V31.5L6.92 30.5V23.7L8.66 24.7ZM8.66 31.5L4.34 34L2.6 33L6.92 30.5L8.66 31.5ZM9.88 22.6C9.52 22.4 9.11333 22.4333 8.66 22.7L2.6 26.2L0.86 25.2L6.92 21.7C7.38667 21.4333 7.79333 21.4 8.14 21.6L9.88 22.6ZM2.6 26.2V41L0.86 40V25.2L2.6 26.2ZM19.3295 33.5L15.0095 36V40L13.2695 41V26.2L19.3295 22.7C19.7829 22.4333 20.1829 22.4 20.5295 22.6C20.8895 22.8 21.0695 23.1667 21.0695 23.7V28.5C21.0695 28.8467 20.9829 29.22 20.8095 29.62C20.6495 30.02 20.4362 30.3933 20.1695 30.74C19.9162 31.0733 19.6362 31.3267 19.3295 31.5C19.7829 31.2333 20.1829 31.2 20.5295 31.4C20.8895 31.6 21.0695 31.9667 21.0695 32.5V36.5L19.3295 37.5V33.5ZM19.3295 31.5V24.7L15.0095 27.2V34L19.3295 31.5ZM19.3295 33.5V37.5L17.5895 36.5V32.5L19.3295 33.5ZM20.5495 31.4C20.1895 31.2 19.7829 31.2333 19.3295 31.5L17.5895 30.5C18.0562 30.2333 18.4629 30.2 18.8095 30.4L20.5495 31.4ZM19.3295 24.7V31.5L17.5895 30.5V23.7L19.3295 24.7ZM19.3295 31.5L15.0095 34L13.2695 33L17.5895 30.5L19.3295 31.5ZM20.5495 22.6C20.1895 22.4 19.7829 22.4333 19.3295 22.7L13.2695 26.2L11.5295 25.2L17.5895 21.7C18.0562 21.4333 18.4629 21.4 18.8095 21.6L20.5495 22.6ZM13.2695 26.2V41L11.5295 40V25.2L13.2695 26.2ZM25.6791 25.2L29.9991 22.7C30.4524 22.4333 30.8524 22.4 31.1991 22.6C31.5591 22.8 31.7391 23.1667 31.7391 23.7V35.3C31.7391 35.6467 31.6524 36.02 31.4791 36.42C31.3191 36.82 31.1057 37.1933 30.8391 37.54C30.5857 37.8733 30.3057 38.1267 29.9991 38.3L25.6791 40.8C25.2124 41.0667 24.8057 41.1 24.4591 40.9C24.1124 40.7 23.9391 40.3333 23.9391 39.8V28.2C23.9391 27.84 24.0191 27.4667 24.1791 27.08C24.3391 26.68 24.5524 26.3133 24.8191 25.98C25.0857 25.6333 25.3724 25.3733 25.6791 25.2ZM25.6791 38.8L29.9991 36.3V24.7L25.6791 27.2V38.8ZM29.9991 24.7V36.3L28.2591 35.3V23.7L29.9991 24.7ZM29.9991 36.3L25.6791 38.8L23.9391 37.8L28.2591 35.3L29.9991 36.3ZM31.2191 22.6C30.8591 22.4 30.4524 22.4333 29.9991 22.7L25.6791 25.2C25.3724 25.3733 25.0857 25.6333 24.8191 25.98C24.5524 26.3133 24.3391 26.68 24.1791 27.08C24.0191 27.4667 23.9391 27.84 23.9391 28.2V39.8C23.9391 40.3333 24.1124 40.7 24.4591 40.9L22.7191 39.9C22.3724 39.7 22.1991 39.3333 22.1991 38.8V27.2C22.1991 26.84 22.2791 26.4667 22.4391 26.08C22.5991 25.68 22.8124 25.3133 23.0791 24.98C23.3457 24.6333 23.6324 24.3733 23.9391 24.2L28.2591 21.7C28.7257 21.4333 29.1324 21.4 29.4791 21.6L31.2191 22.6ZM36.3486 26L42.4086 22.5V35.3C42.4086 35.6467 42.3219 36.02 42.1486 36.42C41.9886 36.82 41.7753 37.1933 41.5086 37.54C41.2553 37.8733 40.9753 38.1267 40.6686 38.3L36.3486 40.8C35.8819 41.0667 35.4753 41.1 35.1286 40.9C34.7819 40.7 34.6086 40.3333 34.6086 39.8V35L36.3486 34V38.8L40.6686 36.3V23.5C40.6686 23.8467 40.5886 24.22 40.4286 24.62C40.2686 25.02 40.0553 25.3933 39.7886 25.74C39.5219 26.0733 39.2353 26.3267 38.9286 26.5L36.3486 28V26ZM40.6686 23.5V36.3L38.9286 35.3V22.5L40.6686 23.5ZM40.6686 36.3L36.3486 38.8L34.6086 37.8L38.9286 35.3L40.6686 36.3ZM42.4086 22.5L36.3486 26L34.6086 25L40.6686 21.5L42.4086 22.5ZM36.3486 26V28L34.6086 27V25L36.3486 26ZM36.3486 34L34.6086 35L32.8686 34L34.6086 33L36.3486 34ZM34.6086 35V39.8C34.6086 40.3333 34.7819 40.7 35.1286 40.9L33.3886 39.9C33.0419 39.7 32.8686 39.3333 32.8686 38.8V34L34.6086 35ZM45.2781 29C45.2781 28.64 45.3581 28.2667 45.5181 27.88C45.6781 27.48 45.8915 27.1133 46.1581 26.78C46.4248 26.4333 46.7115 26.1733 47.0181 26L53.0781 22.5V24.5L47.0181 28V32.4L53.0781 28.9V30.9L47.0181 34.4V38.8L53.0781 35.3V37.3L47.0181 40.8C46.5515 41.0667 46.1448 41.1 45.7981 40.9C45.4515 40.7 45.2781 40.3333 45.2781 39.8V29ZM53.0781 35.3L47.0181 38.8L45.2781 37.8L51.3381 34.3L53.0781 35.3ZM53.0781 28.9L47.0181 32.4L45.2781 31.4L51.3381 27.9L53.0781 28.9ZM53.0781 22.5L47.0181 26C46.7115 26.1733 46.4248 26.4333 46.1581 26.78C45.8915 27.1133 45.6781 27.48 45.5181 27.88C45.3581 28.2667 45.2781 28.64 45.2781 29V39.8C45.2781 40.3333 45.4515 40.7 45.7981 40.9L44.0581 39.9C43.7115 39.7 43.5381 39.3333 43.5381 38.8V28C43.5381 27.64 43.6181 27.2667 43.7781 26.88C43.9381 26.48 44.1515 26.1133 44.4181 25.78C44.6848 25.4333 44.9715 25.1733 45.2781 25L51.3381 21.5L53.0781 22.5ZM59.0677 27.2L55.9477 29V27L63.9077 22.4V24.4L60.7877 26.2V40L59.0677 41V27.2ZM59.0677 27.2V41L57.3277 40V26.2L59.0677 27.2ZM63.9077 22.4L55.9477 27L54.2077 26L62.1877 21.4L63.9077 22.4ZM55.9477 27V29L54.2077 28V26L55.9477 27ZM67.3416 34C66.8749 34.2667 66.4682 34.3 66.1216 34.1C65.7749 33.9 65.6016 33.5333 65.6016 33V28.2C65.6016 27.84 65.6816 27.4667 65.8416 27.08C66.0016 26.68 66.2149 26.3133 66.4816 25.98C66.7482 25.6333 67.0349 25.3733 67.3416 25.2L71.6616 22.7C72.1149 22.4333 72.5149 22.4 72.8616 22.6C73.2216 22.8 73.4016 23.1667 73.4016 23.7V26.5L71.6616 27.5V24.7L67.3416 27.2V32L71.6616 29.5C72.1149 29.2333 72.5149 29.2 72.8616 29.4C73.2216 29.6 73.4016 29.9667 73.4016 30.5V35.3C73.4016 35.6467 73.3149 36.02 73.1416 36.42C72.9816 36.82 72.7682 37.1933 72.5016 37.54C72.2482 37.8733 71.9682 38.1267 71.6616 38.3L67.3416 40.8C66.8749 41.0667 66.4682 41.1 66.1216 40.9C65.7749 40.7 65.6016 40.3333 65.6016 39.8V37.8L67.3416 36.8V38.8L71.6616 36.3V31.5L67.3416 34ZM71.6616 31.5V36.3L69.9216 35.3V30.5L71.6616 31.5ZM71.6616 36.3L67.3416 38.8L65.6016 37.8L69.9216 35.3L71.6616 36.3ZM71.6616 24.7V27.5L69.9216 26.5V23.7L71.6616 24.7ZM67.3416 36.8L65.6016 37.8L63.8616 36.8L65.6016 35.8L67.3416 36.8ZM65.6016 37.8V39.8C65.6016 40.3333 65.7749 40.7 66.1216 40.9L64.3816 39.9C64.0349 39.7 63.8616 39.3333 63.8616 38.8V36.8L65.6016 37.8ZM72.8816 29.4C72.5216 29.2 72.1149 29.2333 71.6616 29.5L67.3416 32L65.6016 31L69.9216 28.5C70.3882 28.2333 70.7949 28.2 71.1416 28.4L72.8816 29.4ZM72.8816 22.6C72.5216 22.4 72.1149 22.4333 71.6616 22.7L67.3416 25.2C67.0349 25.3733 66.7482 25.6333 66.4816 25.98C66.2149 26.3133 66.0016 26.68 65.8416 27.08C65.6816 27.4667 65.6016 27.84 65.6016 28.2V33C65.6016 33.5333 65.7749 33.9 66.1216 34.1L64.3816 33.1C64.0349 32.9 63.8616 32.5333 63.8616 32V27.2C63.8616 26.84 63.9416 26.4667 64.1016 26.08C64.2616 25.68 64.4749 25.3133 64.7416 24.98C65.0082 24.6333 65.2949 24.3733 65.6016 24.2L69.9216 21.7C70.3882 21.4333 70.7949 21.4 71.1416 21.6L72.8816 22.6Z" fill="#333333"/>
</svg>
